# xmcd
#
# Track frame offsets:
#	150
#	20217
#	33295
#	50239
#	62382
#	76737
#	90945
#	102452
#	116022
#	137430
#	149477
#	173427
#	197787
#	211355
#	245642
#	267782
#	279422
#	297925
#	316637
#
# Disc length: 4416
#
# Revision: 3
# Processed by: cddbd v1.5.1PL0 Copyright (c) Steve Scherf et al.
# Submitted via: CDex 1.40Beta9
# Normalized: r2:DSWAP,DSETVAR1
#
DISCID=0c113e13
DTITLE=Various Artist - Black and White Blues
DYEAR=1900
DGENRE=Blues
TTITLE0=Edwards, David "Honeyboy" - I'm from the Library of Congress
TTITLE1=Edwards, David "Honeyboy" - Worried Life Blues
TTITLE2=King, B.B. - 3 O'Clock In The Morning
TTITLE3=Memphis Slim - Mother Earth
TTITLE4=Dixon, Willie - I Love The Life I Live
TTITLE5=Fulson, Lowell - Reconsider Baby
TTITLE6=James, Etta - I'd Rather Be Blind
TTITLE7=Hooker, John Lee - One Bourbon, One Scotch, One Beer
TTITLE8=Taj Mahal - You're Gonna Need Somebody on Your Bond
TTITLE9=Rogers, Jimmy - Chicago Bound
TTITLE10=Brown, Charles - Driftin' Blues
TTITLE11=Rush, Otis - Right Place, Wrong Time
TTITLE12=Taylor, Koko - Wang Dang Doodle
TTITLE13=Guy, Buddy and Junior Wells - I'm So Glad Trouble Don't Last Always
TTITLE14=Collins, Albert - Robert Cray, Johnny Copeland - T-Bone Shuffle
TTITLE15=Lockwood Jr., Robert - Walkin' Blues
TTITLE16=Winter, Johnny w/Muddy Waters - Walkin' Through The Park
TTITLE17=Brown, Clarence "Gatemough" - Okie Dokie Stomp
TTITLE18=Holmes Brothers - Walk In The Light
EXTD=CD Companion of "Black and White Blues" by Mark Norberg ID3G: 0
EXTT0=
EXTT1=
EXTT2=
EXTT3=
EXTT4=
EXTT5=
EXTT6=
EXTT7=
EXTT8=
EXTT9=
EXTT10=
EXTT11=
EXTT12=
EXTT13=
EXTT14=
EXTT15=
EXTT16=
EXTT17=
EXTT18=
PLAYORDER=
